<?xml version="1.0" encoding="UTF-8"?>
<svg width="166px" height="311px" viewBox="0 0 166 311" version="1.1" xmlns="http://www.w3.org/2000/svg" xmlns:xlink="http://www.w3.org/1999/xlink">
    <!-- Generator: Sketch 60.1 (88133) - https://sketch.com -->
    <title>ttcreative</title>
    <desc>Created with Sketch.</desc>
    <g id="Page-1" stroke="none" stroke-width="1" fill="none" fill-rule="evenodd">
        <g id="Group-2">
            <path d="M78.9,0 L78.899,107.83 L102.57,107.83 L102.57,123.61 L78.899,123.61 L78.9,305.08 L77.743,305.08 L26.301,264.146 L26.301,123.61 L0,123.61 L0,107.83 L26.301,107.83 L26.3014025,0 L78.9,0 Z M139.39,0 L139.39,107.83 L165.69,107.83 L165.69,123.61 L139.39,123.61 L139.39,305.08 L138.233,305.08 L86.791,264.146 L86.791,129.271 L108.706082,129.271186 L108.706082,103.416949 L86.791,103.416 L86.7914025,0 L139.39,0 Z" id="Combined-Shape-Copy-23" fill="#44546C"></path>
            <text id="creative-copy-2" fill="#44546C" font-family="AvenirNextCondensed-Medium, Avenir Next Condensed" font-size="21.04" font-style="condensed" font-weight="400" line-spacing="22.881">
                <tspan x="149.97312" y="148.029">C</tspan>
                <tspan x="149.91" y="170.91">R</tspan>
                <tspan x="150.60432" y="193.791">E</tspan>
                <tspan x="150.15196" y="216.672">A</tspan>
                <tspan x="151.30916" y="239.553">T</tspan>
                <tspan x="152.49792" y="262.434">I</tspan>
                <tspan x="150.0678" y="285.315">V</tspan>
                <tspan x="150.60432" y="308.196">E</tspan>
            </text>
        </g>
    </g>
</svg>
